<svg id="Layer_2" height="512" viewBox="0 0 48 48" width="512" xmlns="http://www.w3.org/2000/svg" data-name="Layer 2"><path d="m42 48a6.0618 6.0618 0 0 0 6-6.1089v-20.6528a6.1353 6.1353 0 0 0 -2.1807-4.7119l-17.9993-15.1285a5.9257 5.9257 0 0 0 -7.6391 0l-18 15.1289v.0005a6.1347 6.1347 0 0 0 -2.1809 4.711v20.6528a6.0618 6.0618 0 0 0 6 6.1089zm-38-6.1089v-20.6528a2.1437 2.1437 0 0 1 .7539-1.6494l18.0005-15.1289a1.9092 1.9092 0 0 1 2.4917 0l18 15.1284a2.1443 2.1443 0 0 1 .7539 1.6499v20.6528a2.0587 2.0587 0 0 1 -2 2.1089h-36a2.0587 2.0587 0 0 1 -2-2.1089z"/><path d="m32 38a2 2 0 0 0 0-4h-16a2 2 0 0 0 0 4z"/></svg>