<svg clip-rule="evenodd" fill-rule="evenodd" stroke-linejoin="round" stroke-miterlimit="2" viewBox="0 0 32 32" xmlns="http://www.w3.org/2000/svg"><g transform="translate(-37 -148)"><path d="m40 179h26c1.104 0 2-.896 2-2s-.896-2-2-2h-26c-1.104 0-2 .896-2 2s.896 2 2 2zm5-8v-8c0-1.104-.896-2-2-2s-2 .896-2 2v8c0 1.104.896 2 2 2s2-.896 2-2zm5 0v-12c0-1.104-.896-2-2-2s-2 .896-2 2v12c0 1.104.896 2 2 2s2-.896 2-2zm5 0v-16c0-1.104-.896-2-2-2s-2 .896-2 2v16c0 1.104.896 2 2 2s2-.896 2-2zm10 0v-17c0-1.104-.896-2-2-2s-2 .896-2 2v17c0 1.104.896 2 2 2s2-.896 2-2zm-5 0v-19c0-1.104-.896-2-2-2s-2 .896-2 2v19c0 1.104.896 2 2 2s2-.896 2-2z"/></g></svg>